<?xml version="1.0" encoding="utf-8"?>
<!-- Generator: Adobe Illustrator 23.0.1, SVG Export Plug-In . SVG Version: 6.00 Build 0)  -->
<svg version="1.1" id="Layer_1" xmlns="http://www.w3.org/2000/svg" xmlns:xlink="http://www.w3.org/1999/xlink" x="0px" y="0px"
	 viewBox="0 0 2880 1800" style="enable-background:new 0 0 2880 1800;" xml:space="preserve">
<style type="text/css">
	.st0{fill:url(#SVGID_1_);}
	.st1{fill:#EF3345;}
	.st2{fill:url(#SVGID_2_);}
	.st3{fill:url(#SVGID_3_);}
	.st4{fill:url(#SVGID_4_);}
	.st5{fill:url(#SVGID_5_);}
	.st6{fill:url(#SVGID_6_);}
	.st7{fill:url(#SVGID_7_);}
	.st8{fill:url(#SVGID_8_);}
	.st9{fill:url(#SVGID_9_);}
	.st10{fill:url(#SVGID_10_);}
</style>
<linearGradient id="SVGID_1_" gradientUnits="userSpaceOnUse" x1="1775.95" y1="1242" x2="1776.0077" y2="1242" gradientTransform="matrix(1 0 0 -1 0 1800)">
	<stop  offset="0.1552" style="stop-color:#F05159"/>
	<stop  offset="0.7107" style="stop-color:#A3284B"/>
	<stop  offset="1" style="stop-color:#801645"/>
</linearGradient>
<path class="st0" d="M1775.9,558C1776,558,1776,558,1775.9,558C1776,558,1776,558,1775.9,558z"/>
<path class="st1" d="M1788.7,684.3l0.1,12.9c0,4.6,0.1,9.2,0.1,13.8c0,4.8,0.1,9.6,0.1,14.4c0,4.9,0.1,9.8,0.1,14.7
	s0.1,9.9,0.1,14.8c0,4.9,0.1,9.8,0.1,14.7c0,4.7,0.1,9.5,0.1,14.2c0,4.5,0.1,9,0.1,13.6c0,4.2,0.1,8.4,0.1,12.6l0.1,11.4
	c0,3.3,0.1,6.6,0.1,9.9c0,2.7,0,5.5,0.1,8.2l0.1,11.6c8.2-5.7,17-10.5,26.3-14.5c18.9-8.1,38.9-12.3,59.5-12.4
	c15.6-0.1,31,2.1,45.7,6.6l0,0l0,0c4.7,1.4,9.4,3.1,13.9,5c18.3,7.6,34.7,18.5,48.9,32.5c14.1,14,25.3,30.3,33.1,48.5
	c8.1,18.8,12.3,38.9,12.4,59.5c0.1,20.7-3.8,40.7-11.7,59.7c-7.6,18.3-18.5,34.7-32.5,48.9c-11.3,11.4-24.1,20.9-38.2,28.2
	c-2,1-3.9,2-6,2.9l0,0c-1.4,0.7-2.9,1.3-4.3,1.9c-1.1,0.5-2.2,0.9-3.3,1.4h-0.1c-2.1,0.8-4.2,1.6-6.3,2.4c-9,3.2-18.3,5.5-27.8,6.9
	c-7.3,1.1-14.6,1.7-22.1,1.7c-13.7,0.1-27.2-1.6-40.2-5.1c-6.6-1.7-13.1-3.9-19.5-6.6c-0.9-0.4-1.9-0.8-2.8-1.2
	c-17.2-7.5-32.6-18-46.1-31.3c-14.1-14-25.3-30.3-33.1-48.4c-8.1-18.8-12.3-38.9-12.4-59.5l-2.1-300.5l67.2-0.4
	C1788.7,679.7,1788.7,682,1788.7,684.3z M1854.3,1060.3c6.3,1.7,12.8,2.7,19.6,2.9c1.1,0,2.2,0.1,3.3,0c4,0,8-0.3,11.9-0.9
	c0.4-0.1,0.8-0.1,1.1-0.2c4.2-0.7,8.3-1.7,12.3-2.9c35-11.1,60.3-43.9,60.1-82.5c-0.1-11-2.2-21.6-6.1-31.2l0,0c-0.4-1-0.8-2-1.2-3
	c0-0.1-0.1-0.1-0.1-0.1c-1-2.3-2.1-4.6-3.4-6.8c-0.8-1.5-1.7-2.9-2.6-4.3c-0.1-0.2-0.2-0.2-0.2-0.2c-1.9-3-3.9-5.8-6.2-8.5
	c-0.1-0.1-0.1-0.2-0.1-0.2c-12.7-15.3-30.7-26.1-51-29.7c-5.1-0.9-10.3-1.3-15.6-1.3c-47.4,0.3-85.7,39.1-85.4,86.5
	c0.2,34.7,21.1,64.6,51,77.9C1845.8,1057.6,1850,1059.1,1854.3,1060.3z"/>
<linearGradient id="SVGID_2_" gradientUnits="userSpaceOnUse" x1="696.7006" y1="895.6031" x2="828.3409" y2="895.6031" gradientTransform="matrix(-1 6.429922e-03 -6.429922e-03 -1 2624.3074 1791.6031)">
	<stop  offset="0.1552" style="stop-color:#EF3345"/>
	<stop  offset="0.7107" style="stop-color:#A3284B"/>
	<stop  offset="1" style="stop-color:#801645"/>
</linearGradient>
<path class="st2" d="M1789.9,851.1c8.2-5.7,17-10.5,26.3-14.5c18.9-8.1,38.9-12.3,59.5-12.4c15.6-0.1,31,2.1,45.7,6.6l0,0
	l-29.7,61.9c-5.1-0.9-10.3-1.3-15.6-1.3c-47.4,0.3-85.7,39.1-85.4,86.5L1789.9,851.1z"/>
<linearGradient id="SVGID_3_" gradientUnits="userSpaceOnUse" x1="640.3336" y1="763.2752" x2="782.4906" y2="763.2752" gradientTransform="matrix(-1 6.429922e-03 -6.429922e-03 -1 2624.3074 1791.6031)">
	<stop  offset="0" style="stop-color:#801645"/>
	<stop  offset="0.2893" style="stop-color:#A3284B"/>
	<stop  offset="0.8448" style="stop-color:#EF3345"/>
</linearGradient>
<path class="st3" d="M1837.5,1125.3l16.9-65.1c6.3,1.7,12.8,2.7,19.6,2.9c1.1,0,2.2,0.1,3.3,0c4,0,8-0.3,11.9-0.9
	c0.4-0.1,0.8-0.1,1.1-0.2c4.2-0.7,8.3-1.7,12.3-2.9c35-11.1,60.3-43.9,60.1-82.5c-0.1-11-2.2-21.6-6.1-31.2l0,0c-0.4-1-0.8-2-1.2-3
	c0-0.1-0.1-0.1-0.1-0.1c-1-2.3-2.1-4.6-3.4-6.8c2.1,2.7,73.4,97.8-24.3,186.1c-9,3.2-18.3,5.5-27.8,6.9c-7.3,1.1-14.6,1.7-22.1,1.7
	C1864,1130.5,1850.5,1128.8,1837.5,1125.3z"/>
<linearGradient id="SVGID_4_" gradientUnits="userSpaceOnUse" x1="862.0482" y1="1118.5878" x2="862.0482" y2="1219.4591" gradientTransform="matrix(-1 6.429922e-03 -6.429922e-03 -1 2624.3074 1791.6031)">
	<stop  offset="0.1207" style="stop-color:#EF3345"/>
	<stop  offset="0.7477" style="stop-color:#E1A9BE"/>
	<stop  offset="1" style="stop-color:#DCC8E1"/>
</linearGradient>
<path class="st4" d="M1721.2,641.6L1721.2,641.6c0.1-9.3,0-54.9,0-54.9c0-4.2,3.6-7.9,7.5-8.7c0.6-0.1,1.2-0.2,1.9-0.2
	c1.7,0,3.3,0.4,5,0.7c2.1,0.4,4.2,1,6.2,1.6c4,1.2,7.9,2.9,11.6,4.8c3.7,2,7.1,4.2,10.4,6.8c3.2,2.6,6.2,5.5,8.9,8.6
	c2.7,3.1,5.1,6.5,7.1,10.1c2.1,3.6,3.8,7.4,5.2,11.3c1.4,4,2.4,8.2,2.9,12.4c0.4,2.8,0.6,5.6,0.6,8.4h-0.1c0,1.7,0,3.5,0,5.2v6.7
	c0,2.9,0,5.8,0.1,8.7c0,3.4,0.1,6.9,0.1,10.3v4.7l-67.2,0.4L1721.2,641.6z"/>
<linearGradient id="SVGID_5_" gradientUnits="userSpaceOnUse" x1="835.5873" y1="1237.776" x2="835.645" y2="1237.776" gradientTransform="matrix(-1 6.429922e-03 -6.429922e-03 -1 2624.3074 1791.6031)">
	<stop  offset="0.1552" style="stop-color:#F05159"/>
	<stop  offset="0.7107" style="stop-color:#A3284B"/>
	<stop  offset="1" style="stop-color:#801645"/>
</linearGradient>
<path class="st5" d="M1780.8,559.2C1780.7,559.2,1780.7,559.2,1780.8,559.2C1780.7,559.2,1780.8,559.2,1780.8,559.2z"/>
<linearGradient id="SVGID_6_" gradientUnits="userSpaceOnUse" x1="1407.9998" y1="1242" x2="1408.0575" y2="1242" gradientTransform="matrix(-1 0 0 -1 3053.0015 1800)">
	<stop  offset="0.1552" style="stop-color:#F05159"/>
	<stop  offset="0.7107" style="stop-color:#A3284B"/>
	<stop  offset="1" style="stop-color:#801645"/>
</linearGradient>
<path class="st6" d="M1645.1,558C1645,558,1645,558,1645.1,558C1645,558,1645,558,1645.1,558z"/>
<path class="st1" d="M1632.5,677.3l67.2,0.4l-2.1,300.5c-0.1,20.6-4.3,40.7-12.4,59.5c-7.8,18.1-19,34.4-33.1,48.4
	c-13.5,13.3-28.9,23.8-46.1,31.3c-0.9,0.4-1.9,0.8-2.8,1.2c-6.4,2.7-12.9,4.9-19.5,6.6c-13,3.5-26.5,5.2-40.2,5.1
	c-7.5,0-14.8-0.6-22.1-1.7c-9.5-1.4-18.8-3.7-27.8-6.9c-2.1-0.8-4.2-1.6-6.3-2.4h-0.1c-1.1-0.5-2.2-0.9-3.3-1.4
	c-1.4-0.6-2.9-1.2-4.3-1.9l0,0c-2.1-0.9-4-1.9-6-2.9c-14.1-7.3-26.9-16.8-38.2-28.2c-14-14.2-24.9-30.6-32.5-48.9
	c-7.9-19-11.8-39-11.7-59.7c0.1-20.6,4.3-40.7,12.4-59.5c7.8-18.2,19-34.5,33.1-48.5c14.2-14,30.6-24.9,48.9-32.5
	c4.5-1.9,9.2-3.6,13.9-5l0,0l0,0c14.7-4.5,30.1-6.7,45.7-6.6c20.6,0.1,40.6,4.3,59.5,12.4c9.3,4,18.1,8.8,26.3,14.5l0.1-11.6
	c0.1-2.7,0.1-5.5,0.1-8.2c0-3.3,0.1-6.6,0.1-9.9l0.1-11.4c0-4.2,0.1-8.4,0.1-12.6c0-4.6,0.1-9.1,0.1-13.6c0-4.7,0.1-9.5,0.1-14.2
	c0-4.9,0.1-9.8,0.1-14.7c0-4.9,0.1-9.9,0.1-14.8s0.1-9.8,0.1-14.7c0-4.8,0.1-9.6,0.1-14.4c0-4.6,0.1-9.2,0.1-13.8l0.1-12.9
	C1632.3,682,1632.3,679.7,1632.5,677.3z M1579.3,1055.8c29.9-13.3,50.8-43.2,51-77.9c0.3-47.4-38-86.2-85.4-86.5
	c-5.3,0-10.5,0.4-15.6,1.3c-20.3,3.6-38.3,14.4-51,29.7c0,0,0,0.1-0.1,0.2c-2.3,2.7-4.3,5.5-6.2,8.5c0,0-0.1,0-0.2,0.2
	c-0.9,1.4-1.8,2.8-2.6,4.3c-1.3,2.2-2.4,4.5-3.4,6.8c0,0-0.1,0-0.1,0.1c-0.4,1-0.8,2-1.2,3l0,0c-3.9,9.6-6,20.2-6.1,31.2
	c-0.2,38.6,25.1,71.4,60.1,82.5c4,1.2,8.1,2.2,12.3,2.9c0.3,0.1,0.7,0.1,1.1,0.2c3.9,0.6,7.9,0.9,11.9,0.9c1.1,0.1,2.2,0,3.3,0
	c6.8-0.2,13.3-1.2,19.6-2.9C1571,1059.1,1575.2,1057.6,1579.3,1055.8z"/>
<linearGradient id="SVGID_7_" gradientUnits="userSpaceOnUse" x1="1064.6355" y1="897.9689" x2="1196.2758" y2="897.9689" gradientTransform="matrix(1 6.429922e-03 6.429922e-03 -1 428.6942 1791.6031)">
	<stop  offset="0.1552" style="stop-color:#EF3345"/>
	<stop  offset="0.7107" style="stop-color:#A3284B"/>
	<stop  offset="1" style="stop-color:#801645"/>
</linearGradient>
<path class="st7" d="M1630.3,977.9c0.3-47.4-38-86.2-85.4-86.5c-5.3,0-10.5,0.4-15.6,1.3l-29.7-61.9l0,0c14.7-4.5,30.1-6.7,45.7-6.6
	c20.6,0.1,40.6,4.3,59.5,12.4c9.3,4,18.1,8.8,26.3,14.5L1630.3,977.9z"/>
<linearGradient id="SVGID_8_" gradientUnits="userSpaceOnUse" x1="1008.2686" y1="765.641" x2="1150.4255" y2="765.641" gradientTransform="matrix(1 6.429922e-03 6.429922e-03 -1 428.6942 1791.6031)">
	<stop  offset="0" style="stop-color:#801645"/>
	<stop  offset="0.2893" style="stop-color:#A3284B"/>
	<stop  offset="0.8448" style="stop-color:#EF3345"/>
</linearGradient>
<path class="st8" d="M1543.3,1130.2c-7.5,0-14.8-0.6-22.1-1.7c-9.5-1.4-18.8-3.7-27.8-6.9c-97.7-88.3-26.4-183.4-24.3-186.1
	c-1.3,2.2-2.4,4.5-3.4,6.8c0,0-0.1,0-0.1,0.1c-0.4,1-0.8,2-1.2,3l0,0c-3.9,9.6-6,20.2-6.1,31.2c-0.2,38.6,25.1,71.4,60.1,82.5
	c4,1.2,8.1,2.2,12.3,2.9c0.3,0.1,0.7,0.1,1.1,0.2c3.9,0.6,7.9,0.9,11.9,0.9c1.1,0.1,2.2,0,3.3,0c6.8-0.2,13.3-1.2,19.6-2.9
	l16.9,65.1C1570.5,1128.8,1557,1130.5,1543.3,1130.2z"/>
<linearGradient id="SVGID_9_" gradientUnits="userSpaceOnUse" x1="1229.9832" y1="1120.9536" x2="1229.9832" y2="1221.8248" gradientTransform="matrix(1 6.429922e-03 6.429922e-03 -1 428.6942 1791.6031)">
	<stop  offset="0.1207" style="stop-color:#EF3345"/>
	<stop  offset="0.7477" style="stop-color:#E1A9BE"/>
	<stop  offset="1" style="stop-color:#DCC8E1"/>
</linearGradient>
<path class="st9" d="M1699.6,678.5l-67.2-0.4v-4.7c0-3.4,0.1-6.9,0.1-10.3c0.1-2.9,0.1-5.8,0.1-8.7v-6.7c0-1.7,0-3.5,0-5.2h-0.1
	c0-2.8,0.2-5.6,0.6-8.4c0.5-4.2,1.5-8.4,2.9-12.4c1.4-3.9,3.1-7.7,5.2-11.3c2-3.6,4.4-7,7.1-10.1c2.7-3.1,5.7-6,8.9-8.6
	c3.3-2.6,6.7-4.8,10.4-6.8c3.7-1.9,7.6-3.6,11.6-4.8c2-0.6,4.1-1.2,6.2-1.6c1.7-0.3,3.3-0.7,5-0.7c0.7,0,1.3,0.1,1.9,0.2
	c3.9,0.8,7.5,4.5,7.5,8.7c0,0-0.1,45.6,0,54.9l0,0L1699.6,678.5z"/>
<linearGradient id="SVGID_10_" gradientUnits="userSpaceOnUse" x1="1203.5222" y1="1240.1417" x2="1203.58" y2="1240.1417" gradientTransform="matrix(1 6.429922e-03 6.429922e-03 -1 428.6942 1791.6031)">
	<stop  offset="0.1552" style="stop-color:#F05159"/>
	<stop  offset="0.7107" style="stop-color:#A3284B"/>
	<stop  offset="1" style="stop-color:#801645"/>
</linearGradient>
<path class="st10" d="M1640.2,559.2C1640.3,559.2,1640.3,559.2,1640.2,559.2C1640.2,559.2,1640.3,559.2,1640.2,559.2z"/>
</svg>
